<svg width="5" height="10" viewBox="0 0 5 10" fill="none" xmlns="http://www.w3.org/2000/svg">
<path d="M0.171656 9.80429C0.225707 9.86633 0.289917 9.91555 0.360609 9.94913C0.431301 9.98271 0.507085 10 0.583622 10C0.660158 10 0.735942 9.98271 0.806634 9.94913C0.877326 9.91555 0.941535 9.86633 0.995586 9.8043L4.86387 5.37578C4.90702 5.32647 4.94126 5.26791 4.96462 5.20344C4.98798 5.13898 5 5.06987 5 5.00007C5 4.93028 4.98798 4.86117 4.96462 4.7967C4.94126 4.73223 4.90702 4.67367 4.86387 4.62437L0.995587 0.195844C0.767494 -0.0652841 0.399751 -0.0652842 0.171657 0.195844C-0.0564367 0.456973 -0.0564367 0.877975 0.171657 1.1391L3.54186 5.00274L0.167002 8.86637C-0.0564365 9.12216 -0.0564375 9.5485 0.171656 9.80429Z" fill="white"/>
</svg>
