<svg width="70" height="70" viewBox="0 0 70 70" fill="none" xmlns="http://www.w3.org/2000/svg">
<circle cx="35" cy="35" r="34.5" stroke="white"/>
<path d="M47.1764 45.489L39.2231 37.5357C40.4573 35.9401 41.1249 33.9893 41.1249 31.9375C41.1249 29.4813 40.1664 27.1784 38.433 25.4419C36.6996 23.7055 34.3905 22.75 31.9375 22.75C29.4844 22.75 27.1753 23.7086 25.4419 25.4419C23.7055 27.1753 22.75 29.4813 22.75 31.9375C22.75 34.3905 23.7086 36.6996 25.4419 38.433C27.1753 40.1694 29.4813 41.1249 31.9375 41.1249C33.9893 41.1249 35.9371 40.4573 37.5326 39.2262L45.4859 47.1764C45.5092 47.1997 45.5369 47.2182 45.5674 47.2309C45.5979 47.2435 45.6305 47.25 45.6635 47.25C45.6965 47.25 45.7292 47.2435 45.7597 47.2309C45.7901 47.2182 45.8178 47.1997 45.8411 47.1764L47.1764 45.8442C47.1997 45.8209 47.2182 45.7932 47.2309 45.7627C47.2435 45.7322 47.25 45.6996 47.25 45.6666C47.25 45.6336 47.2435 45.6009 47.2309 45.5705C47.2182 45.54 47.1997 45.5123 47.1764 45.489ZM36.7884 36.7884C35.4899 38.0839 33.7688 38.7974 31.9375 38.7974C30.1061 38.7974 28.385 38.0839 27.0865 36.7884C25.791 35.4899 25.0775 33.7688 25.0775 31.9375C25.0775 30.1061 25.791 28.3819 27.0865 27.0865C28.385 25.791 30.1061 25.0775 31.9375 25.0775C33.7688 25.0775 35.493 25.788 36.7884 27.0865C38.0839 28.385 38.7974 30.1061 38.7974 31.9375C38.7974 33.7688 38.0839 35.493 36.7884 36.7884Z" fill="white"/>
</svg>
