<svg width="121" height="44" viewBox="0 0 121 44" fill="none" xmlns="http://www.w3.org/2000/svg">
<path d="M0.984 34V0.399998H8.76V27.664H25.608V34H0.984ZM41.619 34.384C38.867 34.384 36.419 33.808 34.275 32.656C32.163 31.504 30.483 29.936 29.235 27.952C28.019 25.936 27.411 23.648 27.411 21.088C27.411 18.496 28.019 16.208 29.235 14.224C30.483 12.208 32.163 10.64 34.275 9.52C36.419 8.368 38.867 7.792 41.619 7.792C44.339 7.792 46.771 8.368 48.915 9.52C51.059 10.64 52.739 12.192 53.955 14.176C55.171 16.16 55.779 18.464 55.779 21.088C55.779 23.648 55.171 25.936 53.955 27.952C52.739 29.936 51.059 31.504 48.915 32.656C46.771 33.808 44.339 34.384 41.619 34.384ZM41.619 28.24C42.867 28.24 43.987 27.952 44.979 27.376C45.971 26.8 46.755 25.984 47.331 24.928C47.907 23.84 48.195 22.56 48.195 21.088C48.195 19.584 47.907 18.304 47.331 17.248C46.755 16.192 45.971 15.376 44.979 14.8C43.987 14.224 42.867 13.936 41.619 13.936C40.371 13.936 39.251 14.224 38.259 14.8C37.267 15.376 36.467 16.192 35.859 17.248C35.283 18.304 34.995 19.584 34.995 21.088C34.995 22.56 35.283 23.84 35.859 24.928C36.467 25.984 37.267 26.8 38.259 27.376C39.251 27.952 40.371 28.24 41.619 28.24ZM72.9281 43.696C70.4961 43.696 68.1441 43.392 65.8721 42.784C63.6321 42.208 61.7601 41.328 60.2561 40.144L63.2321 34.768C64.3201 35.664 65.6961 36.368 67.3601 36.88C69.0561 37.424 70.7201 37.696 72.3521 37.696C75.0081 37.696 76.9281 37.104 78.1121 35.92C79.3281 34.736 79.9361 32.976 79.9361 30.64V26.752L80.4161 20.272L80.3201 13.744V8.176H87.4241V29.68C87.4241 34.48 86.1761 38.016 83.6801 40.288C81.1841 42.56 77.6001 43.696 72.9281 43.696ZM71.7761 32.752C69.3761 32.752 67.2001 32.24 65.2481 31.216C63.3281 30.16 61.7761 28.704 60.5921 26.848C59.4401 24.96 58.8641 22.768 58.8641 20.272C58.8641 17.744 59.4401 15.552 60.5921 13.696C61.7761 11.808 63.3281 10.352 65.2481 9.328C67.2001 8.304 69.3761 7.792 71.7761 7.792C73.9521 7.792 75.8721 8.24 77.5361 9.136C79.2001 10 80.4961 11.36 81.4241 13.216C82.3521 15.04 82.8161 17.392 82.8161 20.272C82.8161 23.12 82.3521 25.472 81.4241 27.328C80.4961 29.152 79.2001 30.512 77.5361 31.408C75.8721 32.304 73.9521 32.752 71.7761 32.752ZM73.2641 26.608C74.5761 26.608 75.7441 26.352 76.7681 25.84C77.7921 25.296 78.5921 24.544 79.1681 23.584C79.7441 22.624 80.0321 21.52 80.0321 20.272C80.0321 18.992 79.7441 17.888 79.1681 16.96C78.5921 16 77.7921 15.264 76.7681 14.752C75.7441 14.208 74.5761 13.936 73.2641 13.936C71.9521 13.936 70.7841 14.208 69.7601 14.752C68.7361 15.264 67.9201 16 67.3121 16.96C66.7361 17.888 66.4481 18.992 66.4481 20.272C66.4481 21.52 66.7361 22.624 67.3121 23.584C67.9201 24.544 68.7361 25.296 69.7601 25.84C70.7841 26.352 71.9521 26.608 73.2641 26.608ZM106.682 34.384C103.93 34.384 101.482 33.808 99.3375 32.656C97.2255 31.504 95.5455 29.936 94.2975 27.952C93.0815 25.936 92.4735 23.648 92.4735 21.088C92.4735 18.496 93.0815 16.208 94.2975 14.224C95.5455 12.208 97.2255 10.64 99.3375 9.52C101.482 8.368 103.93 7.792 106.682 7.792C109.402 7.792 111.834 8.368 113.978 9.52C116.122 10.64 117.802 12.192 119.018 14.176C120.234 16.16 120.842 18.464 120.842 21.088C120.842 23.648 120.234 25.936 119.018 27.952C117.802 29.936 116.122 31.504 113.978 32.656C111.834 33.808 109.402 34.384 106.682 34.384ZM106.682 28.24C107.93 28.24 109.05 27.952 110.042 27.376C111.034 26.8 111.818 25.984 112.394 24.928C112.97 23.84 113.258 22.56 113.258 21.088C113.258 19.584 112.97 18.304 112.394 17.248C111.818 16.192 111.034 15.376 110.042 14.8C109.05 14.224 107.93 13.936 106.682 13.936C105.434 13.936 104.314 14.224 103.322 14.8C102.33 15.376 101.53 16.192 100.922 17.248C100.346 18.304 100.058 19.584 100.058 21.088C100.058 22.56 100.346 23.84 100.922 24.928C101.53 25.984 102.33 26.8 103.322 27.376C104.314 27.952 105.434 28.24 106.682 28.24Z" fill="white"/>
</svg>
